<?xml version="1.0" standalone="no"?>
<!DOCTYPE svg PUBLIC "-//W3C//DTD SVG 20010904//EN"
 "http://www.w3.org/TR/2001/REC-SVG-20010904/DTD/svg10.dtd">
<svg version="1.0" xmlns="http://www.w3.org/2000/svg"
 width="1080.000000pt" height="1080.000000pt" viewBox="0 0 1080.000000 1080.000000"
 preserveAspectRatio="xMidYMid meet">

<g transform="translate(0.000000,1080.000000) scale(0.100000,-0.100000)"
fill="#000000" stroke="none">
<path d="M5202 6189 c-19 -7 -22 -16 -22 -58 0 -47 -1 -49 -32 -55 -80 -15
-137 -85 -138 -168 0 -20 -4 -40 -10 -43 -29 -18 -29 -43 0 -83 37 -51 76 -72
135 -72 41 0 45 -2 45 -24 0 -19 4 -23 20 -19 24 6 26 30 4 62 -14 19 -23 22
-54 18 -47 -6 -91 13 -118 51 -18 25 -19 32 -8 41 7 6 16 33 19 61 11 93 55
140 132 140 l35 0 0 60 c0 53 2 60 20 60 24 0 115 -35 156 -61 l32 -19 -15
-48 c-31 -100 -2 -242 55 -267 30 -13 35 -38 23 -114 -6 -35 -8 -68 -5 -72 20
-33 44 34 44 124 0 51 3 61 27 81 24 21 27 31 27 78 -1 63 -28 129 -73 180
-17 20 -31 40 -31 45 0 15 54 42 98 49 66 10 110 -3 153 -47 l38 -39 98 0 c54
0 93 -4 87 -8 -29 -20 -14 -82 21 -82 12 0 12 -5 3 -25 -14 -31 -49 -33 -101
-5 -44 24 -57 25 -57 5 0 -17 56 -55 83 -55 32 0 17 -19 -20 -25 -76 -12 -113
-26 -125 -48 -6 -12 -14 -73 -16 -136 -5 -113 -5 -113 17 -102 19 11 21 20 21
111 0 116 5 125 82 135 74 10 110 35 147 104 34 64 39 106 17 137 -12 16 -30
20 -129 24 -111 5 -116 6 -137 33 -58 73 -192 83 -282 21 l-37 -26 -28 20
c-61 43 -164 74 -201 61z"/>
<path d="M5610 6020 c-24 -24 -24 -30 -7 -54 9 -12 23 -17 42 -14 25 2 31 8
33 33 3 19 -2 33 -14 42 -24 17 -30 17 -54 -7z"/>
<path d="M5170 5945 c-17 -20 -5 -62 21 -70 24 -8 59 19 59 45 0 37 -55 55
-80 25z"/>
<path d="M5159 5605 c-65 -21 -344 -216 -344 -241 0 -18 11 -19 180 -25 168
-5 186 -8 270 -37 291 -101 414 -96 581 24 82 58 193 170 201 202 16 64 -62
34 -156 -59 -31 -31 -65 -61 -77 -67 -11 -6 -63 -14 -115 -17 -52 -3 -119 -7
-149 -10 -40 -3 -48 -1 -28 5 15 4 83 13 150 19 66 6 133 17 147 24 36 17 39
51 6 73 -22 14 -43 16 -140 12 -148 -7 -178 -1 -277 57 -68 40 -92 48 -143 51
-35 2 -79 -2 -106 -11z"/>
<path d="M5017 5093 c-31 -80 -32 -83 -12 -83 8 0 15 5 15 10 0 6 11 10 25 10
14 0 25 -4 25 -10 0 -5 7 -10 16 -10 19 0 15 22 -19 99 l-23 53 -27 -69z"/>
<path d="M5797 5092 c-31 -79 -32 -82 -12 -82 8 0 15 5 15 10 0 6 11 10 25 10
14 0 25 -4 25 -10 0 -5 9 -10 19 -10 19 0 18 4 -10 72 -16 39 -31 73 -33 75
-1 2 -15 -27 -29 -65z"/>
<path d="M4880 5135 c0 -8 9 -15 20 -15 18 0 20 -7 20 -55 0 -30 5 -55 10 -55
6 0 10 25 10 55 0 48 2 55 20 55 11 0 20 7 20 15 0 11 -12 15 -50 15 -38 0
-50 -4 -50 -15z"/>
<path d="M5120 5080 l0 -70 40 0 c29 0 40 4 40 15 0 9 -9 15 -25 15 -24 0 -25
3 -25 55 0 42 -3 55 -15 55 -12 0 -15 -14 -15 -70z"/>
<path d="M5220 5080 l0 -70 35 0 c24 0 35 5 35 15 0 8 -9 15 -20 15 -11 0 -20
7 -20 15 0 8 7 15 15 15 8 0 15 7 15 15 0 8 -7 15 -15 15 -8 0 -15 5 -15 10 0
6 9 10 20 10 11 0 20 7 20 15 0 10 -11 15 -35 15 l-35 0 0 -70z"/>
<path d="M5386 5134 c-59 -59 10 -153 83 -113 33 19 41 81 15 110 -21 23 -76
25 -98 3z m82 -45 c4 -31 -20 -53 -47 -44 -45 14 -30 79 17 73 21 -2 28 -9 30
-29z"/>
<path d="M5530 5080 c0 -56 3 -70 15 -70 10 0 15 10 15 30 0 20 5 30 15 30 8
0 15 7 15 15 0 8 -7 15 -15 15 -8 0 -15 5 -15 10 0 6 9 10 20 10 11 0 20 7 20
15 0 10 -11 15 -35 15 l-35 0 0 -70z"/>
<path d="M5660 5135 c0 -8 9 -15 20 -15 18 0 20 -7 20 -56 0 -73 24 -70 28 4
2 37 7 52 18 52 7 0 14 7 14 15 0 11 -12 15 -50 15 -38 0 -50 -4 -50 -15z"/>
<path d="M5900 5080 c0 -56 3 -70 15 -70 12 0 15 14 15 70 0 56 -3 70 -15 70
-12 0 -15 -14 -15 -70z"/>
<path d="M5960 5080 l0 -70 35 0 c24 0 35 5 35 15 0 8 -9 15 -20 15 -18 0 -20
7 -20 55 0 42 -3 55 -15 55 -12 0 -15 -14 -15 -70z"/>
<path d="M6060 5135 c-17 -20 -9 -48 18 -60 31 -14 29 -39 -3 -31 -18 5 -25 2
-25 -9 0 -20 46 -31 65 -15 24 20 19 59 -10 72 -30 14 -33 28 -5 28 11 0 20 7
20 15 0 19 -44 20 -60 0z"/>
</g>
</svg>
